<svg width="180" height="160" viewBox="0 0 180 160" fill="none" xmlns="http://www.w3.org/2000/svg">
<g filter="url(#filter0_d_193_369)">
<rect x="30" y="25" width="120" height="100" rx="15" fill="#E0E0E0"/>
</g>
<path d="M51.364 84.716C51.812 84.796 52.192 85.032 52.504 85.424C52.816 85.816 52.972 86.26 52.972 86.756C52.972 87.18 52.86 87.564 52.636 87.908C52.42 88.244 52.104 88.512 51.688 88.712C51.272 88.904 50.788 89 50.236 89H46.9V80.66H50.08C50.648 80.66 51.136 80.756 51.544 80.948C51.952 81.14 52.26 81.4 52.468 81.728C52.676 82.048 52.78 82.408 52.78 82.808C52.78 83.288 52.652 83.688 52.396 84.008C52.14 84.328 51.796 84.564 51.364 84.716ZM48.268 84.164H49.96C50.408 84.164 50.756 84.064 51.004 83.864C51.26 83.656 51.388 83.36 51.388 82.976C51.388 82.6 51.26 82.308 51.004 82.1C50.756 81.884 50.408 81.776 49.96 81.776H48.268V84.164ZM50.116 87.884C50.58 87.884 50.944 87.772 51.208 87.548C51.472 87.324 51.604 87.012 51.604 86.612C51.604 86.204 51.464 85.88 51.184 85.64C50.904 85.4 50.532 85.28 50.068 85.28H48.268V87.884H50.116ZM54.0026 85.664C54.0026 85 54.1386 84.412 54.4106 83.9C54.6906 83.388 55.0666 82.992 55.5386 82.712C56.0186 82.424 56.5466 82.28 57.1226 82.28C57.6426 82.28 58.0946 82.384 58.4786 82.592C58.8706 82.792 59.1826 83.044 59.4146 83.348V82.388H60.7946V89H59.4146V88.016C59.1826 88.328 58.8666 88.588 58.4666 88.796C58.0666 89.004 57.6106 89.108 57.0986 89.108C56.5306 89.108 56.0106 88.964 55.5386 88.676C55.0666 88.38 54.6906 87.972 54.4106 87.452C54.1386 86.924 54.0026 86.328 54.0026 85.664ZM59.4146 85.688C59.4146 85.232 59.3186 84.836 59.1266 84.5C58.9426 84.164 58.6986 83.908 58.3946 83.732C58.0906 83.556 57.7626 83.468 57.4106 83.468C57.0586 83.468 56.7306 83.556 56.4266 83.732C56.1226 83.9 55.8746 84.152 55.6826 84.488C55.4986 84.816 55.4066 85.208 55.4066 85.664C55.4066 86.12 55.4986 86.52 55.6826 86.864C55.8746 87.208 56.1226 87.472 56.4266 87.656C56.7386 87.832 57.0666 87.92 57.4106 87.92C57.7626 87.92 58.0906 87.832 58.3946 87.656C58.6986 87.48 58.9426 87.224 59.1266 86.888C59.3186 86.544 59.4146 86.144 59.4146 85.688ZM65.9274 82.28C66.4474 82.28 66.9114 82.388 67.3194 82.604C67.7354 82.82 68.0594 83.14 68.2914 83.564C68.5234 83.988 68.6394 84.5 68.6394 85.1V89H67.2834V85.304C67.2834 84.712 67.1354 84.26 66.8394 83.948C66.5434 83.628 66.1394 83.468 65.6274 83.468C65.1154 83.468 64.7074 83.628 64.4034 83.948C64.1074 84.26 63.9594 84.712 63.9594 85.304V89H62.5914V82.388H63.9594V83.144C64.1834 82.872 64.4674 82.66 64.8114 82.508C65.1634 82.356 65.5354 82.28 65.9274 82.28ZM73.0004 85.7L76.0484 89H74.2004L71.7524 86.156V89H70.3844V80.12H71.7524V85.28L74.1524 82.388H76.0484L73.0004 85.7ZM81.5141 83.348C81.7141 83.012 81.9781 82.752 82.3061 82.568C82.6421 82.376 83.0381 82.28 83.4941 82.28V83.696H83.1461C82.6101 83.696 82.2021 83.832 81.9221 84.104C81.6501 84.376 81.5141 84.848 81.5141 85.52V89H80.1461V82.388H81.5141V83.348ZM84.2956 85.664C84.2956 85 84.4316 84.412 84.7036 83.9C84.9836 83.388 85.3596 82.992 85.8316 82.712C86.3116 82.424 86.8396 82.28 87.4156 82.28C87.9356 82.28 88.3876 82.384 88.7716 82.592C89.1636 82.792 89.4756 83.044 89.7076 83.348V82.388H91.0876V89H89.7076V88.016C89.4756 88.328 89.1596 88.588 88.7596 88.796C88.3596 89.004 87.9036 89.108 87.3916 89.108C86.8236 89.108 86.3036 88.964 85.8316 88.676C85.3596 88.38 84.9836 87.972 84.7036 87.452C84.4316 86.924 84.2956 86.328 84.2956 85.664ZM89.7076 85.688C89.7076 85.232 89.6116 84.836 89.4196 84.5C89.2356 84.164 88.9916 83.908 88.6876 83.732C88.3836 83.556 88.0556 83.468 87.7036 83.468C87.3516 83.468 87.0236 83.556 86.7196 83.732C86.4156 83.9 86.1676 84.152 85.9756 84.488C85.7916 84.816 85.6996 85.208 85.6996 85.664C85.6996 86.12 85.7916 86.52 85.9756 86.864C86.1676 87.208 86.4156 87.472 86.7196 87.656C87.0316 87.832 87.3596 87.92 87.7036 87.92C88.0556 87.92 88.3836 87.832 88.6876 87.656C88.9916 87.48 89.2356 87.224 89.4196 86.888C89.6116 86.544 89.7076 86.144 89.7076 85.688ZM92.4284 85.664C92.4284 85 92.5644 84.412 92.8364 83.9C93.1164 83.388 93.4924 82.992 93.9644 82.712C94.4444 82.424 94.9764 82.28 95.5604 82.28C96.0724 82.28 96.5244 82.384 96.9164 82.592C97.3164 82.8 97.6244 83.052 97.8404 83.348V82.388H99.2204V92.144H97.8404V88.04C97.6244 88.336 97.3124 88.588 96.9044 88.796C96.4964 89.004 96.0324 89.108 95.5124 89.108C94.9444 89.108 94.4244 88.964 93.9524 88.676C93.4884 88.38 93.1164 87.972 92.8364 87.452C92.5644 86.924 92.4284 86.328 92.4284 85.664ZM97.8404 85.688C97.8404 85.232 97.7444 84.836 97.5524 84.5C97.3684 84.164 97.1244 83.908 96.8204 83.732C96.5164 83.556 96.1884 83.468 95.8364 83.468C95.4844 83.468 95.1564 83.556 94.8524 83.732C94.5484 83.9 94.3004 84.152 94.1084 84.488C93.9244 84.816 93.8324 85.208 93.8324 85.664C93.8324 86.12 93.9244 86.52 94.1084 86.864C94.3004 87.208 94.5484 87.472 94.8524 87.656C95.1644 87.832 95.4924 87.92 95.8364 87.92C96.1884 87.92 96.5164 87.832 96.8204 87.656C97.1244 87.48 97.3684 87.224 97.5524 86.888C97.7444 86.544 97.8404 86.144 97.8404 85.688ZM100.561 85.664C100.561 85 100.697 84.412 100.969 83.9C101.249 83.388 101.625 82.992 102.097 82.712C102.577 82.424 103.105 82.28 103.681 82.28C104.201 82.28 104.653 82.384 105.037 82.592C105.429 82.792 105.741 83.044 105.973 83.348V82.388H107.353V89H105.973V88.016C105.741 88.328 105.425 88.588 105.025 88.796C104.625 89.004 104.169 89.108 103.657 89.108C103.089 89.108 102.569 88.964 102.097 88.676C101.625 88.38 101.249 87.972 100.969 87.452C100.697 86.924 100.561 86.328 100.561 85.664ZM105.973 85.688C105.973 85.232 105.877 84.836 105.685 84.5C105.501 84.164 105.257 83.908 104.953 83.732C104.649 83.556 104.321 83.468 103.969 83.468C103.617 83.468 103.289 83.556 102.985 83.732C102.681 83.9 102.433 84.152 102.241 84.488C102.057 84.816 101.965 85.208 101.965 85.664C101.965 86.12 102.057 86.52 102.241 86.864C102.433 87.208 102.681 87.472 102.985 87.656C103.297 87.832 103.625 87.92 103.969 87.92C104.321 87.92 104.649 87.832 104.953 87.656C105.257 87.48 105.501 87.224 105.685 86.888C105.877 86.544 105.973 86.144 105.973 85.688ZM117.154 82.28C117.674 82.28 118.138 82.388 118.546 82.604C118.962 82.82 119.286 83.14 119.518 83.564C119.758 83.988 119.878 84.5 119.878 85.1V89H118.522V85.304C118.522 84.712 118.374 84.26 118.078 83.948C117.782 83.628 117.378 83.468 116.866 83.468C116.354 83.468 115.946 83.628 115.642 83.948C115.346 84.26 115.198 84.712 115.198 85.304V89H113.842V85.304C113.842 84.712 113.694 84.26 113.398 83.948C113.102 83.628 112.698 83.468 112.186 83.468C111.674 83.468 111.266 83.628 110.962 83.948C110.666 84.26 110.518 84.712 110.518 85.304V89H109.15V82.388H110.518V83.144C110.742 82.872 111.026 82.66 111.37 82.508C111.714 82.356 112.082 82.28 112.474 82.28C113.002 82.28 113.474 82.392 113.89 82.616C114.306 82.84 114.626 83.164 114.85 83.588C115.05 83.188 115.362 82.872 115.786 82.64C116.21 82.4 116.666 82.28 117.154 82.28ZM122.315 81.512C122.067 81.512 121.859 81.428 121.691 81.26C121.523 81.092 121.439 80.884 121.439 80.636C121.439 80.388 121.523 80.18 121.691 80.012C121.859 79.844 122.067 79.76 122.315 79.76C122.555 79.76 122.759 79.844 122.927 80.012C123.095 80.18 123.179 80.388 123.179 80.636C123.179 80.884 123.095 81.092 122.927 81.26C122.759 81.428 122.555 81.512 122.315 81.512ZM122.987 82.388V89H121.619V82.388H122.987ZM127.447 82.28C127.959 82.28 128.411 82.384 128.803 82.592C129.203 82.792 129.515 83.044 129.739 83.348V82.388H131.119V89.108C131.119 89.716 130.991 90.256 130.735 90.728C130.479 91.208 130.107 91.584 129.619 91.856C129.139 92.128 128.563 92.264 127.891 92.264C126.995 92.264 126.251 92.052 125.659 91.628C125.067 91.212 124.731 90.644 124.651 89.924H126.007C126.111 90.268 126.331 90.544 126.667 90.752C127.011 90.968 127.419 91.076 127.891 91.076C128.443 91.076 128.887 90.908 129.223 90.572C129.567 90.236 129.739 89.748 129.739 89.108V88.004C129.507 88.316 129.191 88.58 128.791 88.796C128.399 89.004 127.951 89.108 127.447 89.108C126.871 89.108 126.343 88.964 125.863 88.676C125.391 88.38 125.015 87.972 124.735 87.452C124.463 86.924 124.327 86.328 124.327 85.664C124.327 85 124.463 84.412 124.735 83.9C125.015 83.388 125.391 82.992 125.863 82.712C126.343 82.424 126.871 82.28 127.447 82.28ZM129.739 85.688C129.739 85.232 129.643 84.836 129.451 84.5C129.267 84.164 129.023 83.908 128.719 83.732C128.415 83.556 128.087 83.468 127.735 83.468C127.383 83.468 127.055 83.556 126.751 83.732C126.447 83.9 126.199 84.152 126.007 84.488C125.823 84.816 125.731 85.208 125.731 85.664C125.731 86.12 125.823 86.52 126.007 86.864C126.199 87.208 126.447 87.472 126.751 87.656C127.063 87.832 127.391 87.92 127.735 87.92C128.087 87.92 128.415 87.832 128.719 87.656C129.023 87.48 129.267 87.224 129.451 86.888C129.643 86.544 129.739 86.144 129.739 85.688ZM132.46 85.664C132.46 85 132.596 84.412 132.868 83.9C133.148 83.388 133.524 82.992 133.996 82.712C134.476 82.424 135.004 82.28 135.58 82.28C136.1 82.28 136.552 82.384 136.936 82.592C137.328 82.792 137.64 83.044 137.872 83.348V82.388H139.252V89H137.872V88.016C137.64 88.328 137.324 88.588 136.924 88.796C136.524 89.004 136.068 89.108 135.556 89.108C134.988 89.108 134.468 88.964 133.996 88.676C133.524 88.38 133.148 87.972 132.868 87.452C132.596 86.924 132.46 86.328 132.46 85.664ZM137.872 85.688C137.872 85.232 137.776 84.836 137.584 84.5C137.4 84.164 137.156 83.908 136.852 83.732C136.548 83.556 136.22 83.468 135.868 83.468C135.516 83.468 135.188 83.556 134.884 83.732C134.58 83.9 134.332 84.152 134.14 84.488C133.956 84.816 133.864 85.208 133.864 85.664C133.864 86.12 133.956 86.52 134.14 86.864C134.332 87.208 134.58 87.472 134.884 87.656C135.196 87.832 135.524 87.92 135.868 87.92C136.22 87.92 136.548 87.832 136.852 87.656C137.156 87.48 137.4 87.224 137.584 86.888C137.776 86.544 137.872 86.144 137.872 85.688ZM49.768 105.108C49.144 105.108 48.58 104.968 48.076 104.688C47.572 104.4 47.176 104 46.888 103.488C46.6 102.968 46.456 102.368 46.456 101.688C46.456 101.016 46.604 100.42 46.9 99.9C47.196 99.38 47.6 98.98 48.112 98.7C48.624 98.42 49.196 98.28 49.828 98.28C50.46 98.28 51.032 98.42 51.544 98.7C52.056 98.98 52.46 99.38 52.756 99.9C53.052 100.42 53.2 101.016 53.2 101.688C53.2 102.36 53.048 102.956 52.744 103.476C52.44 103.996 52.024 104.4 51.496 104.688C50.976 104.968 50.4 105.108 49.768 105.108ZM49.768 103.92C50.12 103.92 50.448 103.836 50.752 103.668C51.064 103.5 51.316 103.248 51.508 102.912C51.7 102.576 51.796 102.168 51.796 101.688C51.796 101.208 51.704 100.804 51.52 100.476C51.336 100.14 51.092 99.888 50.788 99.72C50.484 99.552 50.156 99.468 49.804 99.468C49.452 99.468 49.124 99.552 48.82 99.72C48.524 99.888 48.288 100.14 48.112 100.476C47.936 100.804 47.848 101.208 47.848 101.688C47.848 102.4 48.028 102.952 48.388 103.344C48.756 103.728 49.216 103.92 49.768 103.92ZM54.7683 96.66H56.2563L54.9963 99.516H54.0363L54.7683 96.66ZM59.0546 99.504V103.164C59.0546 103.412 59.1106 103.592 59.2226 103.704C59.3426 103.808 59.5426 103.86 59.8226 103.86H60.6626V105H59.5826C58.9666 105 58.4946 104.856 58.1666 104.568C57.8386 104.28 57.6746 103.812 57.6746 103.164V99.504H56.8946V98.388H57.6746V96.744H59.0546V98.388H60.6626V99.504H59.0546ZM64.5394 101.7L67.5874 105H65.7394L63.2914 102.156V105H61.9234V96.12H63.2914V101.28L65.6914 98.388H67.5874L64.5394 101.7ZM68.112 101.664C68.112 101 68.248 100.412 68.52 99.9C68.8 99.388 69.176 98.992 69.648 98.712C70.128 98.424 70.656 98.28 71.232 98.28C71.752 98.28 72.204 98.384 72.588 98.592C72.98 98.792 73.292 99.044 73.524 99.348V98.388H74.904V105H73.524V104.016C73.292 104.328 72.976 104.588 72.576 104.796C72.176 105.004 71.72 105.108 71.208 105.108C70.64 105.108 70.12 104.964 69.648 104.676C69.176 104.38 68.8 103.972 68.52 103.452C68.248 102.924 68.112 102.328 68.112 101.664ZM73.524 101.688C73.524 101.232 73.428 100.836 73.236 100.5C73.052 100.164 72.808 99.908 72.504 99.732C72.2 99.556 71.872 99.468 71.52 99.468C71.168 99.468 70.84 99.556 70.536 99.732C70.232 99.9 69.984 100.152 69.792 100.488C69.608 100.816 69.516 101.208 69.516 101.664C69.516 102.12 69.608 102.52 69.792 102.864C69.984 103.208 70.232 103.472 70.536 103.656C70.848 103.832 71.176 103.92 71.52 103.92C71.872 103.92 72.2 103.832 72.504 103.656C72.808 103.48 73.052 103.224 73.236 102.888C73.428 102.544 73.524 102.144 73.524 101.688ZM77.9128 103.884H80.9128V105H76.3288V103.884L79.3408 99.504H76.3288V98.388H80.9128V99.504L77.9128 103.884ZM83.0452 97.512C82.7972 97.512 82.5892 97.428 82.4212 97.26C82.2532 97.092 82.1692 96.884 82.1692 96.636C82.1692 96.388 82.2532 96.18 82.4212 96.012C82.5892 95.844 82.7972 95.76 83.0452 95.76C83.2852 95.76 83.4892 95.844 83.6572 96.012C83.8252 96.18 83.9092 96.388 83.9092 96.636C83.9092 96.884 83.8252 97.092 83.6572 97.26C83.4892 97.428 83.2852 97.512 83.0452 97.512ZM83.7172 98.388V105H82.3492V98.388H83.7172ZM87.9133 105.108C87.3933 105.108 86.9253 105.016 86.5093 104.832C86.1013 104.64 85.7773 104.384 85.5373 104.064C85.2973 103.736 85.1693 103.372 85.1533 102.972H86.5693C86.5933 103.252 86.7253 103.488 86.9653 103.68C87.2133 103.864 87.5213 103.956 87.8893 103.956C88.2733 103.956 88.5693 103.884 88.7773 103.74C88.9933 103.588 89.1013 103.396 89.1013 103.164C89.1013 102.916 88.9813 102.732 88.7413 102.612C88.5093 102.492 88.1373 102.36 87.6253 102.216C87.1293 102.08 86.7253 101.948 86.4133 101.82C86.1013 101.692 85.8293 101.496 85.5973 101.232C85.3733 100.968 85.2613 100.62 85.2613 100.188C85.2613 99.836 85.3653 99.516 85.5733 99.228C85.7813 98.932 86.0773 98.7 86.4613 98.532C86.8533 98.364 87.3013 98.28 87.8053 98.28C88.5573 98.28 89.1613 98.472 89.6173 98.856C90.0813 99.232 90.3293 99.748 90.3613 100.404H88.9933C88.9693 100.108 88.8493 99.872 88.6333 99.696C88.4173 99.52 88.1253 99.432 87.7573 99.432C87.3973 99.432 87.1213 99.5 86.9293 99.636C86.7373 99.772 86.6413 99.952 86.6413 100.176C86.6413 100.352 86.7053 100.5 86.8333 100.62C86.9613 100.74 87.1173 100.836 87.3013 100.908C87.4853 100.972 87.7573 101.056 88.1173 101.16C88.5973 101.288 88.9893 101.42 89.2933 101.556C89.6053 101.684 89.8733 101.876 90.0973 102.132C90.3213 102.388 90.4373 102.728 90.4453 103.152C90.4453 103.528 90.3413 103.864 90.1333 104.16C89.9253 104.456 89.6293 104.688 89.2453 104.856C88.8693 105.024 88.4253 105.108 87.9133 105.108ZM95.3434 98.28C95.8474 98.28 96.2954 98.388 96.6874 98.604C97.0874 98.82 97.3994 99.14 97.6234 99.564C97.8554 99.988 97.9714 100.5 97.9714 101.1V105H96.6154V101.304C96.6154 100.712 96.4674 100.26 96.1714 99.948C95.8754 99.628 95.4714 99.468 94.9594 99.468C94.4474 99.468 94.0394 99.628 93.7354 99.948C93.4394 100.26 93.2914 100.712 93.2914 101.304V105H91.9234V96.12H93.2914V99.156C93.5234 98.876 93.8154 98.66 94.1674 98.508C94.5274 98.356 94.9194 98.28 95.3434 98.28Z" fill="white"/>
<path d="M60 56.1667C63.8605 56.1667 67 53.0272 67 49.1667V48C67 44.1395 63.8605 41 60 41C56.1395 41 53 44.1395 53 48V49.1667C53 53.0272 56.1395 56.1667 60 56.1667Z" fill="white"/>
<path d="M68.5422 59.6445C63.0542 58.1243 56.9467 58.1243 51.4575 59.6445C48.9317 60.3445 47.1665 62.658 47.1665 65.2725V69H72.8332V65.2725C72.8332 62.658 71.068 60.3445 68.5422 59.6445Z" fill="white"/>
<defs>
<filter id="filter0_d_193_369" x="0" y="0" width="180" height="160" filterUnits="userSpaceOnUse" color-interpolation-filters="sRGB">
<feFlood flood-opacity="0" result="BackgroundImageFix"/>
<feColorMatrix in="SourceAlpha" type="matrix" values="0 0 0 0 0 0 0 0 0 0 0 0 0 0 0 0 0 0 127 0" result="hardAlpha"/>
<feOffset dy="5"/>
<feGaussianBlur stdDeviation="15"/>
<feColorMatrix type="matrix" values="0 0 0 0 0 0 0 0 0 0 0 0 0 0 0 0 0 0 0.05 0"/>
<feBlend mode="normal" in2="BackgroundImageFix" result="effect1_dropShadow_193_369"/>
<feBlend mode="normal" in="SourceGraphic" in2="effect1_dropShadow_193_369" result="shape"/>
</filter>
</defs>
</svg>
