<svg width="109" height="160" viewBox="0 0 109 160" fill="none" xmlns="http://www.w3.org/2000/svg">
<g filter="url(#filter0_d_193_376)">
<rect x="30" y="25" width="120" height="100" rx="15" fill="#E0E0E0"/>
</g>
<path d="M51.364 84.716C51.812 84.796 52.192 85.032 52.504 85.424C52.816 85.816 52.972 86.26 52.972 86.756C52.972 87.18 52.86 87.564 52.636 87.908C52.42 88.244 52.104 88.512 51.688 88.712C51.272 88.904 50.788 89 50.236 89H46.9V80.66H50.08C50.648 80.66 51.136 80.756 51.544 80.948C51.952 81.14 52.26 81.4 52.468 81.728C52.676 82.048 52.78 82.408 52.78 82.808C52.78 83.288 52.652 83.688 52.396 84.008C52.14 84.328 51.796 84.564 51.364 84.716ZM48.268 84.164H49.96C50.408 84.164 50.756 84.064 51.004 83.864C51.26 83.656 51.388 83.36 51.388 82.976C51.388 82.6 51.26 82.308 51.004 82.1C50.756 81.884 50.408 81.776 49.96 81.776H48.268V84.164ZM50.116 87.884C50.58 87.884 50.944 87.772 51.208 87.548C51.472 87.324 51.604 87.012 51.604 86.612C51.604 86.204 51.464 85.88 51.184 85.64C50.904 85.4 50.532 85.28 50.068 85.28H48.268V87.884H50.116ZM57.3266 89.108C56.7026 89.108 56.1386 88.968 55.6346 88.688C55.1306 88.4 54.7346 88 54.4466 87.488C54.1586 86.968 54.0146 86.368 54.0146 85.688C54.0146 85.016 54.1626 84.42 54.4586 83.9C54.7546 83.38 55.1586 82.98 55.6706 82.7C56.1826 82.42 56.7546 82.28 57.3866 82.28C58.0186 82.28 58.5906 82.42 59.1026 82.7C59.6146 82.98 60.0186 83.38 60.3146 83.9C60.6106 84.42 60.7586 85.016 60.7586 85.688C60.7586 86.36 60.6066 86.956 60.3026 87.476C59.9986 87.996 59.5826 88.4 59.0546 88.688C58.5346 88.968 57.9586 89.108 57.3266 89.108ZM57.3266 87.92C57.6786 87.92 58.0066 87.836 58.3106 87.668C58.6226 87.5 58.8746 87.248 59.0666 86.912C59.2586 86.576 59.3546 86.168 59.3546 85.688C59.3546 85.208 59.2626 84.804 59.0786 84.476C58.8946 84.14 58.6506 83.888 58.3466 83.72C58.0426 83.552 57.7146 83.468 57.3626 83.468C57.0106 83.468 56.6826 83.552 56.3786 83.72C56.0826 83.888 55.8466 84.14 55.6706 84.476C55.4946 84.804 55.4066 85.208 55.4066 85.688C55.4066 86.4 55.5866 86.952 55.9466 87.344C56.3146 87.728 56.7746 87.92 57.3266 87.92ZM64.5109 89.108C63.9909 89.108 63.5229 89.016 63.1069 88.832C62.6989 88.64 62.3749 88.384 62.1349 88.064C61.8949 87.736 61.7669 87.372 61.7509 86.972H63.1669C63.1909 87.252 63.3229 87.488 63.5629 87.68C63.8109 87.864 64.1189 87.956 64.4869 87.956C64.8709 87.956 65.1669 87.884 65.3749 87.74C65.5909 87.588 65.6989 87.396 65.6989 87.164C65.6989 86.916 65.5789 86.732 65.3389 86.612C65.1069 86.492 64.7349 86.36 64.2229 86.216C63.7269 86.08 63.3229 85.948 63.0109 85.82C62.6989 85.692 62.4269 85.496 62.1949 85.232C61.9709 84.968 61.8589 84.62 61.8589 84.188C61.8589 83.836 61.9629 83.516 62.1709 83.228C62.3789 82.932 62.6749 82.7 63.0589 82.532C63.4509 82.364 63.8989 82.28 64.4029 82.28C65.1549 82.28 65.7589 82.472 66.2149 82.856C66.6789 83.232 66.9269 83.748 66.9589 84.404H65.5909C65.5669 84.108 65.4469 83.872 65.2309 83.696C65.0149 83.52 64.7229 83.432 64.3549 83.432C63.9949 83.432 63.7189 83.5 63.5269 83.636C63.3349 83.772 63.2389 83.952 63.2389 84.176C63.2389 84.352 63.3029 84.5 63.4309 84.62C63.5589 84.74 63.7149 84.836 63.8989 84.908C64.0829 84.972 64.3549 85.056 64.7149 85.16C65.1949 85.288 65.5869 85.42 65.8909 85.556C66.2029 85.684 66.4709 85.876 66.6949 86.132C66.9189 86.388 67.0349 86.728 67.0429 87.152C67.0429 87.528 66.9389 87.864 66.7309 88.16C66.5229 88.456 66.2269 88.688 65.8429 88.856C65.4669 89.024 65.0229 89.108 64.5109 89.108ZM71.9411 82.28C72.4451 82.28 72.8931 82.388 73.2851 82.604C73.6851 82.82 73.9971 83.14 74.2211 83.564C74.4531 83.988 74.5691 84.5 74.5691 85.1V89H73.2131V85.304C73.2131 84.712 73.0651 84.26 72.7691 83.948C72.4731 83.628 72.0691 83.468 71.5571 83.468C71.0451 83.468 70.6371 83.628 70.3331 83.948C70.0371 84.26 69.8891 84.712 69.8891 85.304V89H68.5211V80.12H69.8891V83.156C70.1211 82.876 70.4131 82.66 70.7651 82.508C71.1251 82.356 71.5171 82.28 71.9411 82.28ZM75.8581 85.664C75.8581 85 75.9941 84.412 76.2661 83.9C76.5461 83.388 76.9221 82.992 77.3941 82.712C77.8741 82.424 78.4061 82.28 78.9901 82.28C79.5021 82.28 79.9541 82.384 80.3461 82.592C80.7461 82.8 81.0541 83.052 81.2701 83.348V82.388H82.6501V92.144H81.2701V88.04C81.0541 88.336 80.7421 88.588 80.3341 88.796C79.9261 89.004 79.4621 89.108 78.9421 89.108C78.3741 89.108 77.8541 88.964 77.3821 88.676C76.9181 88.38 76.5461 87.972 76.2661 87.452C75.9941 86.924 75.8581 86.328 75.8581 85.664ZM81.2701 85.688C81.2701 85.232 81.1741 84.836 80.9821 84.5C80.7981 84.164 80.5541 83.908 80.2501 83.732C79.9461 83.556 79.6181 83.468 79.2661 83.468C78.9141 83.468 78.5861 83.556 78.2821 83.732C77.9781 83.9 77.7301 84.152 77.5381 84.488C77.3541 84.816 77.2621 85.208 77.2621 85.664C77.2621 86.12 77.3541 86.52 77.5381 86.864C77.7301 87.208 77.9781 87.472 78.2821 87.656C78.5941 87.832 78.9221 87.92 79.2661 87.92C79.6181 87.92 79.9461 87.832 80.2501 87.656C80.5541 87.48 80.7981 87.224 80.9821 86.888C81.1741 86.544 81.2701 86.144 81.2701 85.688ZM83.9909 85.664C83.9909 85 84.1269 84.412 84.3989 83.9C84.6789 83.388 85.0549 82.992 85.5269 82.712C86.0069 82.424 86.5349 82.28 87.1109 82.28C87.6309 82.28 88.0829 82.384 88.4669 82.592C88.8589 82.792 89.1709 83.044 89.4029 83.348V82.388H90.7829V89H89.4029V88.016C89.1709 88.328 88.8549 88.588 88.4549 88.796C88.0549 89.004 87.5989 89.108 87.0869 89.108C86.5189 89.108 85.9989 88.964 85.5269 88.676C85.0549 88.38 84.6789 87.972 84.3989 87.452C84.1269 86.924 83.9909 86.328 83.9909 85.664ZM89.4029 85.688C89.4029 85.232 89.3069 84.836 89.1149 84.5C88.9309 84.164 88.6869 83.908 88.3829 83.732C88.0789 83.556 87.7509 83.468 87.3989 83.468C87.0469 83.468 86.7189 83.556 86.4149 83.732C86.1109 83.9 85.8629 84.152 85.6709 84.488C85.4869 84.816 85.3949 85.208 85.3949 85.664C85.3949 86.12 85.4869 86.52 85.6709 86.864C85.8629 87.208 86.1109 87.472 86.4149 87.656C86.7269 87.832 87.0549 87.92 87.3989 87.92C87.7509 87.92 88.0789 87.832 88.3829 87.656C88.6869 87.48 88.9309 87.224 89.1149 86.888C89.3069 86.544 89.4029 86.144 89.4029 85.688ZM97.0649 83.372C97.2969 83.052 97.6129 82.792 98.0129 82.592C98.4209 82.384 98.8729 82.28 99.3689 82.28C99.9529 82.28 100.481 82.42 100.953 82.7C101.425 82.98 101.797 83.38 102.069 83.9C102.341 84.412 102.477 85 102.477 85.664C102.477 86.328 102.341 86.924 102.069 87.452C101.797 87.972 101.421 88.38 100.941 88.676C100.469 88.964 99.9449 89.108 99.3689 89.108C98.8569 89.108 98.4009 89.008 98.0009 88.808C97.6089 88.608 97.2969 88.352 97.0649 88.04V89H95.6969V80.12H97.0649V83.372ZM101.085 85.664C101.085 85.208 100.989 84.816 100.797 84.488C100.613 84.152 100.365 83.9 100.053 83.732C99.7489 83.556 99.4209 83.468 99.0689 83.468C98.7249 83.468 98.3969 83.556 98.0849 83.732C97.7809 83.908 97.5329 84.164 97.3409 84.5C97.1569 84.836 97.0649 85.232 97.0649 85.688C97.0649 86.144 97.1569 86.544 97.3409 86.888C97.5329 87.224 97.7809 87.48 98.0849 87.656C98.3969 87.832 98.7249 87.92 99.0689 87.92C99.4209 87.92 99.7489 87.832 100.053 87.656C100.365 87.472 100.613 87.208 100.797 86.864C100.989 86.52 101.085 86.12 101.085 85.664ZM103.374 85.664C103.374 85 103.51 84.412 103.782 83.9C104.062 83.388 104.438 82.992 104.91 82.712C105.39 82.424 105.918 82.28 106.494 82.28C107.014 82.28 107.466 82.384 107.85 82.592C108.242 82.792 108.554 83.044 108.786 83.348V82.388H110.166V89H108.786V88.016C108.554 88.328 108.238 88.588 107.838 88.796C107.438 89.004 106.982 89.108 106.47 89.108C105.902 89.108 105.382 88.964 104.91 88.676C104.438 88.38 104.062 87.972 103.782 87.452C103.51 86.924 103.374 86.328 103.374 85.664ZM108.786 85.688C108.786 85.232 108.69 84.836 108.498 84.5C108.314 84.164 108.07 83.908 107.766 83.732C107.462 83.556 107.134 83.468 106.782 83.468C106.43 83.468 106.102 83.556 105.798 83.732C105.494 83.9 105.246 84.152 105.054 84.488C104.87 84.816 104.778 85.208 104.778 85.664C104.778 86.12 104.87 86.52 105.054 86.864C105.246 87.208 105.494 87.472 105.798 87.656C106.11 87.832 106.438 87.92 106.782 87.92C107.134 87.92 107.462 87.832 107.766 87.656C108.07 87.48 108.314 87.224 108.498 86.888C108.69 86.544 108.786 86.144 108.786 85.688ZM115.299 82.28C115.819 82.28 116.283 82.388 116.691 82.604C117.107 82.82 117.431 83.14 117.663 83.564C117.895 83.988 118.011 84.5 118.011 85.1V89H116.655V85.304C116.655 84.712 116.507 84.26 116.211 83.948C115.915 83.628 115.511 83.468 114.999 83.468C114.487 83.468 114.079 83.628 113.775 83.948C113.479 84.26 113.331 84.712 113.331 85.304V89H111.963V82.388H113.331V83.144C113.555 82.872 113.839 82.66 114.183 82.508C114.535 82.356 114.907 82.28 115.299 82.28ZM122.371 85.7L125.419 89H123.571L121.123 86.156V89H119.755V80.12H121.123V85.28L123.523 82.388H125.419L122.371 85.7ZM49.564 98.28C50.076 98.28 50.528 98.384 50.92 98.592C51.32 98.792 51.632 99.044 51.856 99.348V98.388H53.236V105.108C53.236 105.716 53.108 106.256 52.852 106.728C52.596 107.208 52.224 107.584 51.736 107.856C51.256 108.128 50.68 108.264 50.008 108.264C49.112 108.264 48.368 108.052 47.776 107.628C47.184 107.212 46.848 106.644 46.768 105.924H48.124C48.228 106.268 48.448 106.544 48.784 106.752C49.128 106.968 49.536 107.076 50.008 107.076C50.56 107.076 51.004 106.908 51.34 106.572C51.684 106.236 51.856 105.748 51.856 105.108V104.004C51.624 104.316 51.308 104.58 50.908 104.796C50.516 105.004 50.068 105.108 49.564 105.108C48.988 105.108 48.46 104.964 47.98 104.676C47.508 104.38 47.132 103.972 46.852 103.452C46.58 102.924 46.444 102.328 46.444 101.664C46.444 101 46.58 100.412 46.852 99.9C47.132 99.388 47.508 98.992 47.98 98.712C48.46 98.424 48.988 98.28 49.564 98.28ZM51.856 101.688C51.856 101.232 51.76 100.836 51.568 100.5C51.384 100.164 51.14 99.908 50.836 99.732C50.532 99.556 50.204 99.468 49.852 99.468C49.5 99.468 49.172 99.556 48.868 99.732C48.564 99.9 48.316 100.152 48.124 100.488C47.94 100.816 47.848 101.208 47.848 101.664C47.848 102.12 47.94 102.52 48.124 102.864C48.316 103.208 48.564 103.472 48.868 103.656C49.18 103.832 49.508 103.92 49.852 103.92C50.204 103.92 50.532 103.832 50.836 103.656C51.14 103.48 51.384 103.224 51.568 102.888C51.76 102.544 51.856 102.144 51.856 101.688ZM54.5768 101.664C54.5768 101 54.7128 100.412 54.9848 99.9C55.2648 99.388 55.6408 98.992 56.1128 98.712C56.5928 98.424 57.1208 98.28 57.6968 98.28C58.2168 98.28 58.6688 98.384 59.0528 98.592C59.4448 98.792 59.7568 99.044 59.9888 99.348V98.388H61.3688V105H59.9888V104.016C59.7568 104.328 59.4408 104.588 59.0408 104.796C58.6408 105.004 58.1848 105.108 57.6728 105.108C57.1048 105.108 56.5848 104.964 56.1128 104.676C55.6408 104.38 55.2648 103.972 54.9848 103.452C54.7128 102.924 54.5768 102.328 54.5768 101.664ZM59.9888 101.688C59.9888 101.232 59.8928 100.836 59.7008 100.5C59.5168 100.164 59.2728 99.908 58.9688 99.732C58.6648 99.556 58.3368 99.468 57.9848 99.468C57.6328 99.468 57.3048 99.556 57.0008 99.732C56.6968 99.9 56.4488 100.152 56.2568 100.488C56.0728 100.816 55.9808 101.208 55.9808 101.664C55.9808 102.12 56.0728 102.52 56.2568 102.864C56.4488 103.208 56.6968 103.472 57.0008 103.656C57.3128 103.832 57.6408 103.92 57.9848 103.92C58.3368 103.92 58.6648 103.832 58.9688 103.656C59.2728 103.48 59.5168 103.224 59.7008 102.888C59.8928 102.544 59.9888 102.144 59.9888 101.688ZM69.1508 105.108C68.5268 105.108 67.9628 104.968 67.4588 104.688C66.9548 104.4 66.5588 104 66.2708 103.488C65.9828 102.968 65.8388 102.368 65.8388 101.688C65.8388 101.016 65.9868 100.42 66.2828 99.9C66.5788 99.38 66.9828 98.98 67.4948 98.7C68.0068 98.42 68.5788 98.28 69.2108 98.28C69.8428 98.28 70.4148 98.42 70.9268 98.7C71.4388 98.98 71.8428 99.38 72.1388 99.9C72.4348 100.42 72.5828 101.016 72.5828 101.688C72.5828 102.36 72.4308 102.956 72.1268 103.476C71.8228 103.996 71.4068 104.4 70.8788 104.688C70.3588 104.968 69.7828 105.108 69.1508 105.108ZM69.1508 103.92C69.5028 103.92 69.8308 103.836 70.1348 103.668C70.4468 103.5 70.6988 103.248 70.8908 102.912C71.0828 102.576 71.1788 102.168 71.1788 101.688C71.1788 101.208 71.0868 100.804 70.9028 100.476C70.7188 100.14 70.4748 99.888 70.1708 99.72C69.8668 99.552 69.5388 99.468 69.1868 99.468C68.8348 99.468 68.5068 99.552 68.2028 99.72C67.9068 99.888 67.6708 100.14 67.4948 100.476C67.3188 100.804 67.2308 101.208 67.2308 101.688C67.2308 102.4 67.4108 102.952 67.7708 103.344C68.1388 103.728 68.5988 103.92 69.1508 103.92ZM74.1512 96.66H75.6392L74.3792 99.516H73.4192L74.1512 96.66ZM78.4374 99.504V103.164C78.4374 103.412 78.4934 103.592 78.6054 103.704C78.7254 103.808 78.9254 103.86 79.2054 103.86H80.0454V105H78.9654C78.3494 105 77.8774 104.856 77.5494 104.568C77.2214 104.28 77.0574 103.812 77.0574 103.164V99.504H76.2774V98.388H77.0574V96.744H78.4374V98.388H80.0454V99.504H78.4374ZM83.9223 101.7L86.9703 105H85.1223L82.6743 102.156V105H81.3063V96.12H82.6743V101.28L85.0743 98.388H86.9703L83.9223 101.7ZM87.4948 101.664C87.4948 101 87.6308 100.412 87.9028 99.9C88.1828 99.388 88.5588 98.992 89.0308 98.712C89.5108 98.424 90.0388 98.28 90.6148 98.28C91.1348 98.28 91.5868 98.384 91.9708 98.592C92.3628 98.792 92.6748 99.044 92.9068 99.348V98.388H94.2868V105H92.9068V104.016C92.6748 104.328 92.3588 104.588 91.9588 104.796C91.5588 105.004 91.1028 105.108 90.5908 105.108C90.0228 105.108 89.5028 104.964 89.0308 104.676C88.5588 104.38 88.1828 103.972 87.9028 103.452C87.6308 102.924 87.4948 102.328 87.4948 101.664ZM92.9068 101.688C92.9068 101.232 92.8108 100.836 92.6188 100.5C92.4348 100.164 92.1908 99.908 91.8868 99.732C91.5828 99.556 91.2548 99.468 90.9028 99.468C90.5508 99.468 90.2228 99.556 89.9188 99.732C89.6148 99.9 89.3668 100.152 89.1748 100.488C88.9908 100.816 88.8988 101.208 88.8988 101.664C88.8988 102.12 88.9908 102.52 89.1748 102.864C89.3668 103.208 89.6148 103.472 89.9188 103.656C90.2308 103.832 90.5588 103.92 90.9028 103.92C91.2548 103.92 91.5828 103.832 91.8868 103.656C92.1908 103.48 92.4348 103.224 92.6188 102.888C92.8108 102.544 92.9068 102.144 92.9068 101.688ZM97.2956 103.884H100.296V105H95.7116V103.884L98.7236 99.504H95.7116V98.388H100.296V99.504L97.2956 103.884ZM102.428 97.512C102.18 97.512 101.972 97.428 101.804 97.26C101.636 97.092 101.552 96.884 101.552 96.636C101.552 96.388 101.636 96.18 101.804 96.012C101.972 95.844 102.18 95.76 102.428 95.76C102.668 95.76 102.872 95.844 103.04 96.012C103.208 96.18 103.292 96.388 103.292 96.636C103.292 96.884 103.208 97.092 103.04 97.26C102.872 97.428 102.668 97.512 102.428 97.512ZM103.1 98.388V105H101.732V98.388H103.1ZM107.296 105.108C106.776 105.108 106.308 105.016 105.892 104.832C105.484 104.64 105.16 104.384 104.92 104.064C104.68 103.736 104.552 103.372 104.536 102.972H105.952C105.976 103.252 106.108 103.488 106.348 103.68C106.596 103.864 106.904 103.956 107.272 103.956C107.656 103.956 107.952 103.884 108.16 103.74C108.376 103.588 108.484 103.396 108.484 103.164C108.484 102.916 108.364 102.732 108.124 102.612C107.892 102.492 107.52 102.36 107.008 102.216C106.512 102.08 106.108 101.948 105.796 101.82C105.484 101.692 105.212 101.496 104.98 101.232C104.756 100.968 104.644 100.62 104.644 100.188C104.644 99.836 104.748 99.516 104.956 99.228C105.164 98.932 105.46 98.7 105.844 98.532C106.236 98.364 106.684 98.28 107.188 98.28C107.94 98.28 108.544 98.472 109 98.856C109.464 99.232 109.712 99.748 109.744 100.404H108.376C108.352 100.108 108.232 99.872 108.016 99.696C107.8 99.52 107.508 99.432 107.14 99.432C106.78 99.432 106.504 99.5 106.312 99.636C106.12 99.772 106.024 99.952 106.024 100.176C106.024 100.352 106.088 100.5 106.216 100.62C106.344 100.74 106.5 100.836 106.684 100.908C106.868 100.972 107.14 101.056 107.5 101.16C107.98 101.288 108.372 101.42 108.676 101.556C108.988 101.684 109.256 101.876 109.48 102.132C109.704 102.388 109.82 102.728 109.828 103.152C109.828 103.528 109.724 103.864 109.516 104.16C109.308 104.456 109.012 104.688 108.628 104.856C108.252 105.024 107.808 105.108 107.296 105.108ZM114.726 98.28C115.23 98.28 115.678 98.388 116.07 98.604C116.47 98.82 116.782 99.14 117.006 99.564C117.238 99.988 117.354 100.5 117.354 101.1V105H115.998V101.304C115.998 100.712 115.85 100.26 115.554 99.948C115.258 99.628 114.854 99.468 114.342 99.468C113.83 99.468 113.422 99.628 113.118 99.948C112.822 100.26 112.674 100.712 112.674 101.304V105H111.306V96.12H112.674V99.156C112.906 98.876 113.198 98.66 113.55 98.508C113.91 98.356 114.302 98.28 114.726 98.28Z" fill="white"/>
<path d="M72.8333 65.5H71.6667V56.1667H69.3333V65.5H64.6667V56.1667H62.3333V65.5H57.6667V56.1667H55.3333V65.5H50.6667V56.1667H48.3333V65.5H47.1667C46.5227 65.5 46 66.0215 46 66.6667C46 67.3118 46.5227 67.8333 47.1667 67.8333H72.8333C73.4773 67.8333 74 67.3118 74 66.6667C74 66.0215 73.4773 65.5 72.8333 65.5Z" fill="white"/>
<path d="M73.3922 48.1423L60.5588 41.1423C60.21 40.9533 59.79 40.9533 59.4412 41.1423L46.6078 48.1423C46.2333 48.3464 46 48.7396 46 49.1666V52.6666C46 53.3118 46.5227 53.8333 47.1667 53.8333H72.8333C73.4773 53.8333 74 53.3118 74 52.6666V49.1666C74 48.7396 73.7667 48.3464 73.3922 48.1423ZM60 50.3333C58.7108 50.3333 57.6667 49.2891 57.6667 47.9999C57.6667 46.7108 58.7108 45.6666 60 45.6666C61.2892 45.6666 62.3333 46.7108 62.3333 47.9999C62.3333 49.2891 61.2892 50.3333 60 50.3333Z" fill="white"/>
<defs>
<filter id="filter0_d_193_376" x="0" y="0" width="180" height="160" filterUnits="userSpaceOnUse" color-interpolation-filters="sRGB">
<feFlood flood-opacity="0" result="BackgroundImageFix"/>
<feColorMatrix in="SourceAlpha" type="matrix" values="0 0 0 0 0 0 0 0 0 0 0 0 0 0 0 0 0 0 127 0" result="hardAlpha"/>
<feOffset dy="5"/>
<feGaussianBlur stdDeviation="15"/>
<feColorMatrix type="matrix" values="0 0 0 0 0 0 0 0 0 0 0 0 0 0 0 0 0 0 0.05 0"/>
<feBlend mode="normal" in2="BackgroundImageFix" result="effect1_dropShadow_193_376"/>
<feBlend mode="normal" in="SourceGraphic" in2="effect1_dropShadow_193_376" result="shape"/>
</filter>
</defs>
</svg>
