<svg width="180" height="160" viewBox="0 0 180 160" fill="none" xmlns="http://www.w3.org/2000/svg">
<g filter="url(#filter0_d_193_391)">
<rect x="30" y="25" width="120" height="100" rx="15" fill="#E0E0E0"/>
</g>
<path d="M52.276 80.528V81.632H49.912V89H48.532V81.632H46.18V80.528H52.276ZM54.6648 83.684C54.8888 83.252 55.2088 82.912 55.6248 82.664C56.0408 82.408 56.5208 82.28 57.0648 82.28V83.768H56.6568C56.0568 83.768 55.5728 83.916 55.2048 84.212C54.8448 84.5 54.6648 84.98 54.6648 85.652V89H53.2968V82.388H54.6648V83.684ZM60.7417 82.304C61.3417 82.304 61.8537 82.452 62.2777 82.748C62.7017 83.044 63.0017 83.436 63.1777 83.924V82.388H64.5457V89H63.1777V87.464C63.0017 87.952 62.7017 88.344 62.2777 88.64C61.8537 88.936 61.3417 89.084 60.7417 89.084C60.1657 89.084 59.6497 88.948 59.1937 88.676C58.7457 88.404 58.3937 88.012 58.1377 87.5C57.8817 86.988 57.7537 86.384 57.7537 85.688C57.7537 85 57.8817 84.4 58.1377 83.888C58.3937 83.376 58.7457 82.984 59.1937 82.712C59.6497 82.44 60.1657 82.304 60.7417 82.304ZM61.1617 83.504C60.5537 83.504 60.0657 83.7 59.6977 84.092C59.3377 84.476 59.1577 85.008 59.1577 85.688C59.1577 86.368 59.3377 86.904 59.6977 87.296C60.0657 87.68 60.5537 87.872 61.1617 87.872C61.5457 87.872 61.8897 87.784 62.1937 87.608C62.4977 87.424 62.7377 87.168 62.9137 86.84C63.0897 86.512 63.1777 86.128 63.1777 85.688C63.1777 85.256 63.0897 84.876 62.9137 84.548C62.7377 84.212 62.4977 83.956 62.1937 83.78C61.8897 83.596 61.5457 83.504 61.1617 83.504ZM69.8834 82.28C70.6514 82.28 71.2674 82.528 71.7314 83.024C72.1954 83.52 72.4274 84.228 72.4274 85.148V89H71.0594V85.292C71.0594 84.7 70.9074 84.244 70.6034 83.924C70.2994 83.596 69.8834 83.432 69.3554 83.432C68.8114 83.432 68.3754 83.608 68.0474 83.96C67.7194 84.304 67.5554 84.812 67.5554 85.484V89H66.1874V82.388H67.5554V83.84C67.7314 83.344 68.0274 82.96 68.4434 82.688C68.8594 82.416 69.3394 82.28 69.8834 82.28ZM76.1992 82.304C76.9752 82.304 77.5952 82.504 78.0592 82.904C78.5312 83.296 78.8192 83.824 78.9232 84.488H77.6272C77.5712 84.128 77.4152 83.84 77.1592 83.624C76.9112 83.4 76.5792 83.288 76.1632 83.288C75.8192 83.288 75.5512 83.372 75.3592 83.54C75.1752 83.7 75.0832 83.92 75.0832 84.2C75.0832 84.408 75.1512 84.576 75.2872 84.704C75.4232 84.832 75.5912 84.932 75.7912 85.004C75.9992 85.076 76.2912 85.156 76.6672 85.244C77.1632 85.356 77.5632 85.472 77.8672 85.592C78.1792 85.712 78.4432 85.904 78.6592 86.168C78.8832 86.424 78.9952 86.776 78.9952 87.224C78.9952 87.776 78.7832 88.224 78.3592 88.568C77.9432 88.912 77.3792 89.084 76.6672 89.084C75.8432 89.084 75.1752 88.892 74.6632 88.508C74.1592 88.124 73.8552 87.588 73.7512 86.9H75.0832C75.1232 87.26 75.2832 87.552 75.5632 87.776C75.8432 88 76.2112 88.112 76.6672 88.112C76.9952 88.112 77.2512 88.028 77.4352 87.86C77.6272 87.684 77.7232 87.464 77.7232 87.2C77.7232 86.968 77.6512 86.784 77.5072 86.648C77.3632 86.512 77.1832 86.408 76.9672 86.336C76.7512 86.256 76.4552 86.176 76.0792 86.096C75.5992 85.984 75.2072 85.872 74.9032 85.76C74.6072 85.648 74.3512 85.468 74.1352 85.22C73.9272 84.964 73.8232 84.62 73.8232 84.188C73.8232 83.628 74.0312 83.176 74.4472 82.832C74.8712 82.48 75.4552 82.304 76.1992 82.304ZM83.4511 81.02C82.9151 80.996 82.5391 81.084 82.3231 81.284C82.1071 81.476 81.9991 81.808 81.9991 82.28V82.388H83.4511V83.564H81.9991V89H80.6191V83.564H79.7191V82.388H80.6191V82.172C80.6191 81.364 80.8551 80.76 81.3271 80.36C81.7991 79.952 82.5071 79.772 83.4511 79.82V81.02ZM90.6947 85.376C90.6947 85.6 90.6787 85.796 90.6467 85.964H85.5587C85.5827 86.644 85.7707 87.148 86.1227 87.476C86.4747 87.804 86.9107 87.968 87.4307 87.968C87.8867 87.968 88.2707 87.852 88.5827 87.62C88.9027 87.388 89.0987 87.08 89.1707 86.696H90.6347C90.5467 87.16 90.3627 87.572 90.0827 87.932C89.8027 88.292 89.4387 88.576 88.9907 88.784C88.5427 88.984 88.0427 89.084 87.4907 89.084C86.8507 89.084 86.2827 88.948 85.7867 88.676C85.2987 88.404 84.9147 88.012 84.6347 87.5C84.3547 86.988 84.2147 86.384 84.2147 85.688C84.2147 85 84.3547 84.4 84.6347 83.888C84.9147 83.376 85.2987 82.984 85.7867 82.712C86.2827 82.44 86.8507 82.304 87.4907 82.304C88.1387 82.304 88.7027 82.44 89.1827 82.712C89.6707 82.976 90.0427 83.344 90.2987 83.816C90.5627 84.28 90.6947 84.8 90.6947 85.376ZM89.3147 85.34C89.3307 84.908 89.2547 84.548 89.0867 84.26C88.9267 83.964 88.7027 83.748 88.4147 83.612C88.1347 83.468 87.8267 83.396 87.4907 83.396C86.9547 83.396 86.5067 83.56 86.1467 83.888C85.7867 84.216 85.5907 84.7 85.5587 85.34H89.3147ZM93.3835 83.684C93.6075 83.252 93.9275 82.912 94.3435 82.664C94.7595 82.408 95.2395 82.28 95.7835 82.28V83.768H95.3755C94.7755 83.768 94.2915 83.916 93.9235 84.212C93.5635 84.5 93.3835 84.98 93.3835 85.652V89H92.0155V82.388H93.3835V83.684ZM102.945 87.812V89H102.105C101.401 89 100.865 88.832 100.497 88.496C100.137 88.152 99.957 87.584 99.957 86.792V83.552H99.009V82.388H99.957V80.744H101.337V82.388H102.933V83.552H101.337V86.816C101.337 87.192 101.405 87.452 101.541 87.596C101.685 87.74 101.933 87.812 102.285 87.812H102.945ZM107.25 82.304C107.89 82.304 108.466 82.44 108.978 82.712C109.49 82.984 109.89 83.376 110.178 83.888C110.466 84.4 110.61 85 110.61 85.688C110.61 86.384 110.466 86.988 110.178 87.5C109.89 88.012 109.49 88.404 108.978 88.676C108.466 88.948 107.89 89.084 107.25 89.084C106.61 89.084 106.034 88.948 105.522 88.676C105.018 88.404 104.618 88.012 104.322 87.5C104.034 86.98 103.89 86.376 103.89 85.688C103.89 85 104.034 84.4 104.322 83.888C104.618 83.376 105.018 82.984 105.522 82.712C106.034 82.44 106.61 82.304 107.25 82.304ZM107.25 83.492C106.898 83.492 106.574 83.572 106.278 83.732C105.982 83.892 105.742 84.14 105.558 84.476C105.382 84.804 105.294 85.208 105.294 85.688C105.294 86.176 105.382 86.584 105.558 86.912C105.742 87.24 105.982 87.484 106.278 87.644C106.574 87.804 106.898 87.884 107.25 87.884C107.602 87.884 107.926 87.804 108.222 87.644C108.518 87.484 108.754 87.24 108.93 86.912C109.114 86.584 109.206 86.176 109.206 85.688C109.206 85.208 109.114 84.804 108.93 84.476C108.754 84.14 108.518 83.892 108.222 83.732C107.926 83.572 107.602 83.492 107.25 83.492ZM49.48 98.304C50.08 98.304 50.592 98.452 51.016 98.748C51.44 99.044 51.74 99.436 51.916 99.924V98.388H53.284V105H51.916V103.464C51.74 103.952 51.44 104.344 51.016 104.64C50.592 104.936 50.08 105.084 49.48 105.084C48.904 105.084 48.388 104.948 47.932 104.676C47.484 104.404 47.132 104.012 46.876 103.5C46.62 102.988 46.492 102.384 46.492 101.688C46.492 101 46.62 100.4 46.876 99.888C47.132 99.376 47.484 98.984 47.932 98.712C48.388 98.44 48.904 98.304 49.48 98.304ZM49.9 99.504C49.292 99.504 48.804 99.7 48.436 100.092C48.076 100.476 47.896 101.008 47.896 101.688C47.896 102.368 48.076 102.904 48.436 103.296C48.804 103.68 49.292 103.872 49.9 103.872C50.284 103.872 50.628 103.784 50.932 103.608C51.236 103.424 51.476 103.168 51.652 102.84C51.828 102.512 51.916 102.128 51.916 101.688C51.916 101.256 51.828 100.876 51.652 100.548C51.476 100.212 51.236 99.956 50.932 99.78C50.628 99.596 50.284 99.504 49.9 99.504ZM58.6217 98.28C59.3897 98.28 60.0057 98.528 60.4697 99.024C60.9337 99.52 61.1657 100.228 61.1657 101.148V105H59.7977V101.292C59.7977 100.7 59.6457 100.244 59.3417 99.924C59.0377 99.596 58.6217 99.432 58.0937 99.432C57.5497 99.432 57.1137 99.608 56.7857 99.96C56.4577 100.304 56.2937 100.812 56.2937 101.484V105H54.9257V98.388H56.2937V99.84C56.4697 99.344 56.7657 98.96 57.1817 98.688C57.5977 98.416 58.0777 98.28 58.6217 98.28ZM65.7895 98.304C66.4295 98.304 67.0055 98.44 67.5175 98.712C68.0295 98.984 68.4295 99.376 68.7175 99.888C69.0055 100.4 69.1495 101 69.1495 101.688C69.1495 102.384 69.0055 102.988 68.7175 103.5C68.4295 104.012 68.0295 104.404 67.5175 104.676C67.0055 104.948 66.4295 105.084 65.7895 105.084C65.1495 105.084 64.5735 104.948 64.0615 104.676C63.5575 104.404 63.1575 104.012 62.8615 103.5C62.5735 102.98 62.4295 102.376 62.4295 101.688C62.4295 101 62.5735 100.4 62.8615 99.888C63.1575 99.376 63.5575 98.984 64.0615 98.712C64.5735 98.44 65.1495 98.304 65.7895 98.304ZM65.7895 99.492C65.4375 99.492 65.1135 99.572 64.8175 99.732C64.5215 99.892 64.2815 100.14 64.0975 100.476C63.9215 100.804 63.8335 101.208 63.8335 101.688C63.8335 102.176 63.9215 102.584 64.0975 102.912C64.2815 103.24 64.5215 103.484 64.8175 103.644C65.1135 103.804 65.4375 103.884 65.7895 103.884C66.1415 103.884 66.4655 103.804 66.7615 103.644C67.0575 103.484 67.2935 103.24 67.4695 102.912C67.6535 102.584 67.7455 102.176 67.7455 101.688C67.7455 101.208 67.6535 100.804 67.4695 100.476C67.2935 100.14 67.0575 99.892 66.7615 99.732C66.4655 99.572 66.1415 99.492 65.7895 99.492ZM73.7887 103.812V105H72.9487C72.2447 105 71.7087 104.832 71.3407 104.496C70.9807 104.152 70.8007 103.584 70.8007 102.792V99.552H69.8527V98.388H70.8007V96.744H72.1807V98.388H73.7767V99.552H72.1807V102.816C72.1807 103.192 72.2487 103.452 72.3847 103.596C72.5287 103.74 72.7767 103.812 73.1287 103.812H73.7887ZM78.7662 98.28C79.5342 98.28 80.1502 98.528 80.6142 99.024C81.0782 99.52 81.3102 100.228 81.3102 101.148V105H79.9422V101.292C79.9422 100.7 79.7902 100.244 79.4862 99.924C79.1822 99.596 78.7662 99.432 78.2382 99.432C77.6942 99.432 77.2582 99.608 76.9302 99.96C76.6022 100.304 76.4382 100.812 76.4382 101.484V105H75.0702V96.12H76.4382V99.84C76.6142 99.344 76.9102 98.96 77.3262 98.688C77.7422 98.416 78.2222 98.28 78.7662 98.28ZM89.054 101.376C89.054 101.6 89.038 101.796 89.006 101.964H83.918C83.942 102.644 84.13 103.148 84.482 103.476C84.834 103.804 85.27 103.968 85.79 103.968C86.246 103.968 86.63 103.852 86.942 103.62C87.262 103.388 87.458 103.08 87.53 102.696H88.994C88.906 103.16 88.722 103.572 88.442 103.932C88.162 104.292 87.798 104.576 87.35 104.784C86.902 104.984 86.402 105.084 85.85 105.084C85.21 105.084 84.642 104.948 84.146 104.676C83.658 104.404 83.274 104.012 82.994 103.5C82.714 102.988 82.574 102.384 82.574 101.688C82.574 101 82.714 100.4 82.994 99.888C83.274 99.376 83.658 98.984 84.146 98.712C84.642 98.44 85.21 98.304 85.85 98.304C86.498 98.304 87.062 98.44 87.542 98.712C88.03 98.976 88.402 99.344 88.658 99.816C88.922 100.28 89.054 100.8 89.054 101.376ZM87.674 101.34C87.69 100.908 87.614 100.548 87.446 100.26C87.286 99.964 87.062 99.748 86.774 99.612C86.494 99.468 86.186 99.396 85.85 99.396C85.314 99.396 84.866 99.56 84.506 99.888C84.146 100.216 83.95 100.7 83.918 101.34H87.674ZM91.7429 99.684C91.9669 99.252 92.2869 98.912 92.7029 98.664C93.1189 98.408 93.5989 98.28 94.1429 98.28V99.768H93.7349C93.1349 99.768 92.6509 99.916 92.2829 100.212C91.9229 100.5 91.7429 100.98 91.7429 101.652V105H90.3749V98.388H91.7429V99.684ZM101.772 98.304C102.348 98.304 102.86 98.44 103.308 98.712C103.764 98.984 104.12 99.376 104.376 99.888C104.632 100.4 104.76 101 104.76 101.688C104.76 102.384 104.632 102.988 104.376 103.5C104.12 104.012 103.764 104.404 103.308 104.676C102.86 104.948 102.348 105.084 101.772 105.084C101.172 105.084 100.66 104.936 100.236 104.64C99.8123 104.344 99.5163 103.952 99.3483 103.464V105H97.9803V96.12H99.3483V99.924C99.5163 99.436 99.8123 99.044 100.236 98.748C100.66 98.452 101.172 98.304 101.772 98.304ZM101.352 99.504C100.968 99.504 100.624 99.596 100.32 99.78C100.016 99.956 99.7763 100.212 99.6003 100.548C99.4243 100.876 99.3363 101.256 99.3363 101.688C99.3363 102.128 99.4243 102.512 99.6003 102.84C99.7763 103.168 100.016 103.424 100.32 103.608C100.624 103.784 100.968 103.872 101.352 103.872C101.96 103.872 102.448 103.68 102.816 103.296C103.184 102.904 103.368 102.368 103.368 101.688C103.368 101.016 103.184 100.484 102.816 100.092C102.448 99.7 101.96 99.504 101.352 99.504ZM108.73 98.304C109.33 98.304 109.842 98.452 110.266 98.748C110.69 99.044 110.99 99.436 111.166 99.924V98.388H112.534V105H111.166V103.464C110.99 103.952 110.69 104.344 110.266 104.64C109.842 104.936 109.33 105.084 108.73 105.084C108.154 105.084 107.638 104.948 107.182 104.676C106.734 104.404 106.382 104.012 106.126 103.5C105.87 102.988 105.742 102.384 105.742 101.688C105.742 101 105.87 100.4 106.126 99.888C106.382 99.376 106.734 98.984 107.182 98.712C107.638 98.44 108.154 98.304 108.73 98.304ZM109.15 99.504C108.542 99.504 108.054 99.7 107.686 100.092C107.326 100.476 107.146 101.008 107.146 101.688C107.146 102.368 107.326 102.904 107.686 103.296C108.054 103.68 108.542 103.872 109.15 103.872C109.534 103.872 109.878 103.784 110.182 103.608C110.486 103.424 110.726 103.168 110.902 102.84C111.078 102.512 111.166 102.128 111.166 101.688C111.166 101.256 111.078 100.876 110.902 100.548C110.726 100.212 110.486 99.956 110.182 99.78C109.878 99.596 109.534 99.504 109.15 99.504ZM117.872 98.28C118.64 98.28 119.256 98.528 119.72 99.024C120.184 99.52 120.416 100.228 120.416 101.148V105H119.048V101.292C119.048 100.7 118.896 100.244 118.592 99.924C118.288 99.596 117.872 99.432 117.344 99.432C116.8 99.432 116.364 99.608 116.036 99.96C115.708 100.304 115.544 100.812 115.544 101.484V105H114.176V98.388H115.544V99.84C115.72 99.344 116.016 98.96 116.432 98.688C116.848 98.416 117.328 98.28 117.872 98.28ZM125.76 105L123.384 102.06V105H122.016V96.12H123.384V101.208L125.736 98.388H127.38L124.5 101.676L127.452 105H125.76Z" fill="white"/>
<path d="M72.8333 65.5H71.6667V56.1667H69.3333V65.5H64.6667V56.1667H62.3333V65.5H57.6667V56.1667H55.3333V65.5H50.6667V56.1667H48.3333V65.5H47.1667C46.5227 65.5 46 66.0215 46 66.6667C46 67.3118 46.5227 67.8333 47.1667 67.8333H72.8333C73.4773 67.8333 74 67.3118 74 66.6667C74 66.0215 73.4773 65.5 72.8333 65.5Z" fill="white"/>
<path d="M73.3922 48.1422L60.5588 41.1422C60.21 40.9532 59.79 40.9532 59.4412 41.1422L46.6078 48.1422C46.2333 48.3464 46 48.7396 46 49.1666V52.6666C46 53.3117 46.5227 53.8333 47.1667 53.8333H72.8333C73.4773 53.8333 74 53.3117 74 52.6666V49.1666C74 48.7396 73.7667 48.3464 73.3922 48.1422ZM60 50.3332C58.7108 50.3332 57.6667 49.2891 57.6667 47.9999C57.6667 46.7107 58.7108 45.6666 60 45.6666C61.2892 45.6666 62.3333 46.7107 62.3333 47.9999C62.3333 49.2891 61.2892 50.3332 60 50.3332Z" fill="white"/>
<defs>
<filter id="filter0_d_193_391" x="0" y="0" width="180" height="160" filterUnits="userSpaceOnUse" color-interpolation-filters="sRGB">
<feFlood flood-opacity="0" result="BackgroundImageFix"/>
<feColorMatrix in="SourceAlpha" type="matrix" values="0 0 0 0 0 0 0 0 0 0 0 0 0 0 0 0 0 0 127 0" result="hardAlpha"/>
<feOffset dy="5"/>
<feGaussianBlur stdDeviation="15"/>
<feColorMatrix type="matrix" values="0 0 0 0 0 0 0 0 0 0 0 0 0 0 0 0 0 0 0.05 0"/>
<feBlend mode="normal" in2="BackgroundImageFix" result="effect1_dropShadow_193_391"/>
<feBlend mode="normal" in="SourceGraphic" in2="effect1_dropShadow_193_391" result="shape"/>
</filter>
</defs>
</svg>
